<svg xmlns="http://www.w3.org/2000/svg" width="110" height="110">
    <path fill="#fff" stroke="#fff" stroke-width="3.2" d="M61.904 48.55q.287-2.859-1.533-5.085t-4.678-2.512-5.085 1.533-2.512 4.678q-.287 2.86 1.533 5.085t4.678 2.512q2.859.287 5.085-1.533t2.512-4.678m14.103-1.554-.6 5.987q-.033.323-.278.598t-.575.297l-5.065.254q-.659 1.405-1.298 2.35.809 1.442 2.512 4.01.237.351.202.702-.035.35-.305.596-.828.924-2.962 2.644t-2.727 1.66q-.324-.032-.677-.312l-3.43-3.286q-1.248.501-2.557.778-.799 3.625-1.285 4.938-.264.736-1.047.658l-5.987-.6q-.377-.039-.638-.296-.26-.258-.251-.611l-.258-5.038q-1.278-.565-2.327-1.242l-4.092 2.504q-.294.216-.699.175-.377-.038-.644-.364-3.09-3.415-3.995-4.977-.162-.289-.127-.64.033-.323.278-.598.461-.526 1.555-1.656t1.648-1.755q-.593-1.421-.838-2.78l-4.863-1.224q-.345-.09-.532-.394t-.152-.655l.6-5.988q.033-.323.278-.598t.548-.3l5.092-.251q.502-1.203 1.3-2.376-.924-1.645-2.512-4.011-.237-.35-.204-.674.027-.27.305-.596.798-.9 2.947-2.633 2.149-1.732 2.742-1.673.35.036.674.34l3.432 3.26q1.25-.502 2.558-.779.799-3.625 1.285-4.938.264-.736 1.047-.658l5.987.601q.377.038.637.296.26.257.252.61l.258 5.039q1.278.564 2.327 1.241l4.119-2.501q.267-.219.672-.178.35.035.647.337 3.157 3.559 3.99 5.031.167.235.129.613-.033.323-.278.598-.461.526-1.555 1.656t-1.648 1.755q.566 1.419.841 2.754l4.86 1.25q.345.09.532.394t.152.656"/>
</svg>