<svg xmlns="http://www.w3.org/2000/svg" viewBox="0 0 256 256">
  <path fill="#cd7c92" d="M0 256V0h256v256z"/>
  <path fill="#a46375" stroke="#a46375" stroke-linejoin="round" stroke-width="5" d="M46.853 192.588c-.363 1.462.435 4.017 2.746 5.577 2.312 1.56 4.98 1.343 6.2.459 1.22-.884 1.93-3.003 2.51-5.328 2.19.975 4.295 1.721 5.744 1.304 1.448-.417 3.261-2.386 3.456-5.167.195-2.782-1.326-4.984-2.702-5.6-1.376-.614-3.565-.17-5.87.49-.25-2.383-.656-4.58-1.742-5.625-1.085-1.045-3.697-1.632-6.203-.41-2.507 1.222-3.653 3.64-3.498 5.14.155 1.5 1.635 3.173 3.36 4.838-1.94 1.408-3.639 2.859-4.001 4.322zm113.963-158.48c1.097.663 3.373.657 5.22-.828 1.848-1.485 2.342-3.706 1.931-4.92-.41-1.213-1.953-2.322-3.696-3.377 1.342-1.533 2.477-3.056 2.503-4.337.025-1.28-1.118-3.248-3.328-4.106-2.21-.857-4.381-.175-5.226.788-.846.963-1.035 2.852-1.077 4.89-1.999-.397-3.885-.618-5.007 0-1.122.62-2.254 2.593-1.892 4.936.363 2.342 2.039 3.881 3.295 4.132 1.257.25 2.988-.53 4.773-1.512.656 1.928 1.408 3.673 2.504 4.335zm-98.939 48.66c.707.88 2.591 1.565 4.57.896 1.979-.67 3.061-2.357 3.089-3.486.028-1.128-.912-2.513-2.034-3.914 1.575-.862 2.975-1.778 3.384-2.83.41-1.052.06-3.027-1.509-4.406-1.568-1.38-3.571-1.473-4.562-.932-.992.54-1.72 2.047-2.374 3.719-1.533-.933-3.027-1.688-4.142-1.517-1.116.172-2.651 1.462-3.062 3.51-.41 2.048.51 3.83 1.474 4.418.964.588 2.633.466 4.408.195-.042 1.795.051 3.466.758 4.346zm130.848 50.534c1.4.609 4.086.243 6.034-1.803 1.948-2.046 2.182-4.747 1.504-6.116-.677-1.368-2.673-2.434-4.898-3.406 1.343-2.022 2.443-4 2.27-5.516-.172-1.517-1.832-3.66-4.578-4.325-2.745-.664-5.202.485-6.048 1.755-.846 1.27-.771 3.533-.5 5.945-2.423-.152-4.686-.116-5.913.792-1.228.908-2.254 3.418-1.456 6.127.798 2.71 3.02 4.263 4.544 4.36 1.523.099 3.445-1.097 5.399-2.538 1.08 2.174 2.242 4.116 3.642 4.725z"/>
  <path fill="#b97084" stroke="#b97084" stroke-linejoin="round" stroke-width="6" d="M151.822 170.934c-.982 1.585 2.486 8.041 4.346 8.1 1.86.06 5.72-6.18 4.842-7.814-.877-1.634-8.206-1.871-9.188-.286zM20.967 42.386c-2.09 1.993.59 13.027 3.357 13.842 2.766.815 10.986-7.035 10.31-9.828-.678-2.792-11.575-6.008-13.667-4.014Zm18.064 184.569c-.953-1.876-9.21-2.314-10.356-.555-1.147 1.758 2.608 9.134 4.697 9.246 2.09.112 6.611-6.816 5.659-8.691zM92.716 113.85c-2.353.846-4.094 10.518-2.19 12.132 1.905 1.613 11.16-1.723 11.601-4.17.442-2.448-7.058-8.807-9.411-7.962zm131.836 106.023c.082-2.374-7.842-7.314-9.936-6.2-2.094 1.112-2.407 10.454-.402 11.705 2.005 1.251 10.257-3.13 10.338-5.505zM27.323 146.441c-2-1.272-10.257 3.04-10.36 5.404-.103 2.363 7.77 7.36 9.86 6.27 2.09-1.09 2.5-10.402.5-11.674zm215.162-10.643c-1.193-1.733-9.437-1.077-10.342.818-.905 1.896 3.793 8.712 5.88 8.547 2.086-.165 5.654-7.631 4.462-9.365zm-108.64 90.224c-2.932.723-6.23 12.126-4.143 14.301 2.087 2.176 13.621-.677 14.457-3.562.836-2.886-7.382-11.462-10.314-10.74zM95.179 25.73c-.33-2.09-8.094-5.069-9.736-3.741-1.643 1.327-.337 9.547 1.628 10.302 1.964.755 8.438-4.471 8.108-6.561zm123.538 2.978c-2.395-1.09-10.807 4.927-10.555 7.541.252 2.614 9.679 6.892 11.808 5.37 2.13-1.52 1.142-11.822-1.253-12.911z"/>
</svg>
