<svg xmlns="http://www.w3.org/2000/svg" viewBox="0 0 256 256">
  <path fill="#601d1d" d="M0 0h256v256H0Z"/>
  <path fill="#5a1b1b" d="M199.318 125.398c-15.113-1.108-26.592 8.251-29.009 20.027-3.548 17.29 2.378 26.761 13.016 32.151 10.428 5.284 16.307 17.833 26.265 12.425 8.36-4.54-2.095-17.996-2.27-28.812-.176-10.815 7.11-34.684-8.002-35.791zM33 115c-10.116 9.358-27.142 29.657-19.642 36.157 7.5 6.5 26.874 2.853 34.142-1.414 7.268-4.268 8.44-11.182 5.5-20.743-2.94-9.56-9.884-23.358-20-14Zm151.51-90.207c-12.226 5.464-17.217 22.353-9.889 30.353 7.329 8 20.233 10.243 26.818 18.51 6.586 8.269 6.647 16.243 10.268 24.415C215.328 106.243 221 108 231 106.5s15.702-18.311 18.5-32-10.5-26.504-21-27c-19.339-.914-31.763-28.17-43.99-22.707zM75.48 53.074c-5.52-11.12 7.014-32.466 18.698-34.347 11.684-1.881 18.116 7.825 26.306 17.896 8.121 9.986 21.649 15.94 18.14 25.183-3.51 9.244-16.043 15.337-28.477 10.175-12.434-5.161-29.149-7.787-34.668-18.907ZM90 187c-15.257-.718-26.107 14.61-20.718 27.207 3.202 7.483 12.597 16.536 19.657 27.218 5.297 8.012 12.073 11.896 19.561 10.575 7.488-1.321 12.543-6.679 14-16.5 1.457-9.821-5.5-15.5-16.5-23.5s-.743-24.282-16-25Z"/>
  <path fill="#541919" d="M95.187 112.846c-.655.338-2.423.491-3.517-.225-1.094-.716-1.71-1.662-1.614-3.134.096-1.473.556-3.234.637-4.677.08-1.444-.18-3.245-.11-4.719.069-1.474.786-2.344 1.953-2.934 1.168-.59 2.294-.65 3.521.17 1.228.819 2.523 2.098 3.732 2.89 1.21.791 2.9 1.467 4.142 2.264 1.242.797 1.637 1.853 1.564 3.159-.073 1.305-.584 2.31-1.907 2.964-1.323.653-3.078 1.135-4.369 1.787-1.29.652-2.72 1.778-4.032 2.455 0 0 .656-.339 0 0zm138.687-83.802c-.537-.229-1.523-1.23-1.638-2.26-.116-1.029.15-1.882 1.098-2.566.947-.685 2.253-1.293 3.175-1.973.922-.679 1.89-1.747 2.824-2.449.935-.702 1.828-.704 2.777-.289.949.415 1.554 1.072 1.674 2.234.12 1.163-.007 2.599.12 3.737s.569 2.51.71 3.67c.14 1.16-.305 1.935-1.14 2.549-.833.614-1.704.81-2.77.333-1.067-.478-2.248-1.306-3.297-1.764-1.049-.46-2.458-.763-3.533-1.222 0 0 .538.23 0 0zM126.753 195.39c-.384.336-1.543.729-2.394.43-.85-.3-1.418-.832-1.596-1.834-.179-1.002-.16-2.257-.344-3.237-.184-.98-.655-2.144-.851-3.142-.196-.999.14-1.7.825-2.287.685-.587 1.43-.813 2.386-.466.957.346 2.035.99 2.976 1.32.94.332 2.184.506 3.147.835.963.329 1.401.971 1.567 1.858.166.886-.01 1.644-.789 2.3-.778.655-1.875 1.267-2.632 1.916-.757.649-1.529 1.639-2.295 2.308 0 0 .383-.335 0 0zM12.35 75.196c-.62-.4-1.63-1.859-1.553-3.164.077-1.305.592-2.31 1.917-2.958 1.325-.65 3.082-1.125 4.375-1.773 1.292-.647 2.726-1.769 4.04-2.441 1.313-.673 2.425-.484 3.516.236 1.092.72 1.704 1.667 1.604 3.14-.101 1.472-.567 3.231-.653 4.674-.085 1.444.17 3.246.095 4.72-.074 1.473-.794 2.341-1.963 2.927-1.17.586-2.296.642-3.52-.181-1.225-.823-2.516-2.107-3.723-2.902-1.207-.796-2.895-1.477-4.134-2.278 0 0 .62.4 0 0z"/>
  <path fill="#661f1f" d="M170.046 18.838a6.716 6.716 0 0 1-6.716 6.716 6.716 6.716 0 0 1-6.715-6.716 6.716 6.716 0 0 1 6.715-6.715 6.716 6.716 0 0 1 6.716 6.715zm-12.14 107.552a11.665 11.665 0 0 1-11.665 11.664 11.665 11.665 0 0 1-11.665-11.665 11.665 11.665 0 0 1 11.665-11.665 11.665 11.665 0 0 1 11.665 11.665zM28.1 219.338a9.216 9.216 0 0 1-9.215 9.216 9.216 9.216 0 0 1-9.216-9.216 9.216 9.216 0 0 1 9.216-9.215 9.216 9.216 0 0 1 9.216 9.215zm45.446-147a6.716 6.716 0 0 1-6.716 6.716 6.716 6.716 0 0 1-6.715-6.716 6.716 6.716 0 0 1 6.715-6.715 6.716 6.716 0 0 1 6.716 6.715zm171.054 57.5a9.216 9.216 0 0 1-9.215 9.216 9.216 9.216 0 0 1-9.216-9.216 9.216 9.216 0 0 1 9.216-9.215 9.216 9.216 0 0 1 9.216 9.215zm-220-112.5a9.216 9.216 0 0 1-9.215 9.216 9.216 9.216 0 0 1-9.216-9.216 9.216 9.216 0 0 1 9.216-9.215 9.216 9.216 0 0 1 9.216 9.215Zm177.446 193.5a6.716 6.716 0 0 1-6.716 6.716 6.716 6.716 0 0 1-6.715-6.716 6.716 6.716 0 0 1 6.715-6.715 6.716 6.716 0 0 1 6.716 6.715z"/>
  <path fill="#541e1e" d="M45.658 244.803c-.81.537-3.106.99-4.642.207-1.536-.783-2.477-1.934-2.562-3.877-.084-1.944.267-4.317.167-6.22-.1-1.904-.698-4.227-.817-6.169-.12-1.942.696-3.185 2.142-4.124 1.445-.939 2.913-1.179 4.638-.28s3.605 2.39 5.303 3.255c1.699.865 4.01 1.509 5.751 2.376 1.742.867 2.41 2.196 2.5 3.917.091 1.721-.435 3.112-2.076 4.157-1.64 1.045-3.872 1.927-5.47 2.965-1.599 1.039-3.312 2.718-4.934 3.793 0 0 .811-.538 0 0zM155.86 76.993c-.707-.47-1.849-2.163-1.74-3.664.109-1.501.716-2.649 2.25-3.375 1.536-.727 3.564-1.249 5.062-1.974 1.497-.726 3.163-1.995 4.685-2.75 1.521-.753 2.798-.519 4.044.326 1.245.845 1.935 1.944 1.797 3.637-.138 1.692-.7 3.71-.82 5.37-.121 1.66.145 3.737.037 5.432-.107 1.695-.95 2.683-2.303 3.34-1.355.655-2.652.704-4.049-.262-1.396-.966-2.863-2.462-4.24-3.396-1.377-.934-3.309-1.743-4.723-2.684 0 0 .707.47 0 0zm77.332 152.141c.115 1.087-.626 3.613-2.204 4.74-1.578 1.125-3.215 1.467-5.198.542-1.983-.924-4.169-2.507-6.12-3.396-1.95-.888-4.58-1.498-6.579-2.387-2-.888-2.816-2.348-3.003-4.278-.186-1.93.336-3.518 2.129-4.773 1.792-1.255 4.256-2.356 6-3.602 1.746-1.245 3.588-3.217 5.357-4.504 1.77-1.288 3.442-1.265 5.207-.462 1.764.804 2.879 2.05 3.07 4.23.19 2.18-.088 4.864.118 6.998.206 2.134.993 4.716 1.223 6.892 0 0-.115-1.088 0 0z"/>
  <path fill="#661f1f" d="M88.546 208.338a6.716 6.716 0 0 1-6.716 6.716 6.716 6.716 0 0 1-6.715-6.716 6.716 6.716 0 0 1 6.715-6.715 6.716 6.716 0 0 1 6.716 6.715zm-1.196-56a7.716 7.716 0 0 1-7.715 7.716 7.716 7.716 0 0 1-7.716-7.716 7.716 7.716 0 0 1 7.716-7.715 7.716 7.716 0 0 1 7.716 7.715z"/>
</svg>
